<svg width="32" height="32" viewBox="0 0 32 32" fill="none" xmlns="http://www.w3.org/2000/svg">
<path d="M16 10.25C14.8628 10.25 13.7511 10.5872 12.8055 11.219C11.8599 11.8509 11.1229 12.7489 10.6877 13.7996C10.2525 14.8502 10.1386 16.0064 10.3605 17.1218C10.5824 18.2372 11.13 19.2617 11.9341 20.0659C12.7383 20.87 13.7628 21.4177 14.8782 21.6395C15.9936 21.8614 17.1498 21.7475 18.2004 21.3123C19.2511 20.8771 20.1491 20.1401 20.781 19.1945C21.4128 18.2489 21.75 17.1372 21.75 16C21.75 14.475 21.1442 13.0125 20.0659 11.9341C18.9875 10.8558 17.525 10.25 16 10.25ZM16 20.25C15.1594 20.25 14.3377 20.0007 13.6388 19.5337C12.9399 19.0668 12.3952 18.403 12.0735 17.6264C11.7518 16.8498 11.6677 15.9953 11.8317 15.1709C11.9957 14.3464 12.4004 13.5892 12.9948 12.9948C13.5892 12.4004 14.3464 11.9956 15.1709 11.8317C15.9953 11.6677 16.8498 11.7518 17.6264 12.0735C18.403 12.3952 19.0668 12.9399 19.5337 13.6388C20.0007 14.3377 20.25 15.1594 20.25 16C20.2467 17.1262 19.7979 18.2052 19.0016 19.0016C18.2052 19.7979 17.1262 20.2467 16 20.25ZM21.5 3.75H10.5C8.70979 3.75 6.9929 4.46116 5.72703 5.72703C4.46116 6.9929 3.75 8.70979 3.75 10.5V21.5C3.75 23.2902 4.46116 25.0071 5.72703 26.273C6.9929 27.5388 8.70979 28.25 10.5 28.25H21.5C23.2902 28.25 25.0071 27.5388 26.273 26.273C27.5388 25.0071 28.25 23.2902 28.25 21.5V10.5C28.25 8.70979 27.5388 6.9929 26.273 5.72703C25.0071 4.46116 23.2902 3.75 21.5 3.75ZM26.75 21.5C26.75 22.8924 26.1969 24.2277 25.2123 25.2123C24.2277 26.1969 22.8924 26.75 21.5 26.75H10.5C9.10761 26.75 7.77226 26.1969 6.78769 25.2123C5.80312 24.2277 5.25 22.8924 5.25 21.5V10.5C5.25 9.10761 5.80312 7.77225 6.78769 6.78769C7.77226 5.80312 9.10761 5.25 10.5 5.25H21.5C22.8924 5.25 24.2277 5.80312 25.2123 6.78769C26.1969 7.77225 26.75 9.10761 26.75 10.5V21.5ZM23.75 9.5C23.75 9.74723 23.6767 9.9889 23.5393 10.1945C23.402 10.4 23.2068 10.5602 22.9784 10.6548C22.7499 10.7495 22.4986 10.7742 22.2561 10.726C22.0137 10.6778 21.7909 10.5587 21.6161 10.3839C21.4413 10.2091 21.3223 9.98634 21.274 9.74386C21.2258 9.50139 21.2505 9.25005 21.3452 9.02165C21.4398 8.79324 21.6 8.59801 21.8055 8.46066C22.0111 8.32331 22.2528 8.25 22.5 8.25C22.8315 8.25 23.1495 8.3817 23.3839 8.61612C23.6183 8.85054 23.75 9.16848 23.75 9.5Z" fill="#011C44"/>
</svg>
